<?xml version="1.0" encoding="UTF-8"?>
<svg id="Layer_1" xmlns="http://www.w3.org/2000/svg" version="1.1" viewBox="0 0 276 130">
  <!-- Generator: Adobe Illustrator 29.3.1, SVG Export Plug-In . SVG Version: 2.1.0 Build 151)  -->
  <defs>
    <style>
      .st0 {
        fill-rule: evenodd;
      }

      .st0, .st1 {
        fill: #fff;
      }

      .st2 {
        fill: #0079c2;
      }
    </style>
  </defs>
  <path class="st2" d="M0,0h276v130H0V0Z"/>
  <path class="st0" d="M62.4,95.9c-1.2.8-2.8,1.6-4.2,2.2h13.9v-13.9c-.5,1.3-1.4,3-2.2,4.2l-2.8-2.8c-.9,1.5-2,2.9-3.3,4.2s-2.7,2.5-4.2,3.3c0,0,2.8,2.8,2.8,2.8ZM62.6,81c-.7,1.6-1.8,3.2-3.2,4.4-1.3,1.3-2.8,2.3-4.4,3.2l3.7,3.7c1.5-.9,2.9-2,4.3-3.3,1.3-1.3,2.3-2.7,3.3-4.2l-3.7-3.7h0ZM71.4,80c.8-3.4.8-7.1,0-10.6h-1.9c.9,3.5.9,7.2,0,10.6h1.9ZM68.4,79.9c.9-3.3.9-7.1,0-10.6h-5.4c1.3,3.4,1.3,7.2,0,10.6h5.4ZM69.9,60.8c.7,1.1,1.6,2.8,2.2,4.2v-13.9h-13.9c1.4.6,2.8,1.3,4.2,2.2l-2.8,2.8c1.5.9,2.9,2,4.2,3.3s2.3,2.7,3.3,4.2c0,0,2.8-2.8,2.8-2.8ZM55.1,60.7c1.6.7,3.2,1.8,4.4,3.2s2.2,2.7,3,4.4l3.7-3.7c-.9-1.5-2-2.9-3.3-4.2s-2.7-2.3-4.2-3.3l-3.7,3.7h0ZM53.9,52c-3.5-.8-7.1-.8-10.6,0v1.9c3.5-.9,7.1-.9,10.6,0,0,0,0-1.9,0-1.9ZM54,54.9c-3.5-.9-7.1-.9-10.6,0v5.4c3.4-1.3,7.2-1.3,10.6,0v-5.4ZM30.2,63.6c.9-1.5,2-2.9,3.3-4.2,1.3-1.3,2.7-2.3,4.2-3.3l-2.8-2.8c1.4-.9,2.8-1.6,4.2-2.2h-13.9v13.9c.6-1.4,1.3-2.9,2.2-4.2,0,0,2.8,2.8,2.8,2.8ZM38.5,56.9c-1.5.8-2.9,2-4.2,3.3s-2.3,2.7-3.3,4.3l3.7,3.7c.7-1.6,1.8-3.2,3-4.4s2.8-2.3,4.4-3.2c0,0-3.7-3.7-3.7-3.7ZM28.9,69.3c-.9,3.5-.9,7.1,0,10.6h5.4c-1.3-3.4-1.3-7.2,0-10.6h-5.4ZM26,69.3c-.8,3.5-.8,7.1,0,10.6h1.9c-.9-3.5-.9-7.1,0-10.6h-1.9ZM27.4,88.4c-.9-1.4-1.6-2.8-2.2-4.2v13.9h13.9c-1.4-.6-2.9-1.3-4.2-2.2l2.8-2.8c-1.5-.9-2.9-2-4.2-3.3s-2.3-2.7-3.3-4.2c0,0-2.8,2.8-2.8,2.8ZM30.9,84.8c.9,1.5,2,2.9,3.3,4.3s2.7,2.3,4.2,3.3l3.7-3.7c-1.6-.7-3.2-1.8-4.4-3-1.3-1.3-2.3-2.8-3-4.4l-3.7,3.7h0ZM43.4,89c3.4,1.3,7.2,1.3,10.6,0v5.4c-3.5.9-7.1.9-10.6,0,0,0,0-5.4,0-5.4ZM43.4,95.4c3.5.8,7.1.9,10.6,0v1.9c-3.5.8-7.1.8-10.6,0,0,0,0-1.9,0-1.9Z"/>
  <path class="st1" d="M83.1,51h7.1l23.6,32.7v-32.7h7.6v47.2h-6.4l-24.3-33.6v33.6h-7.6v-47.3h0ZM143.2,74.3h6.7c5.7,0,9.3-3.2,9.3-7.9s-3.5-7.9-9.5-7.9h-11.7v39.7h-7.9v-47.3h20.3c5.7,0,10.2,1.8,13.1,4.7,2.5,2.6,3.7,6.1,3.7,10.2,0,7.9-4.4,12.5-10.9,14.5l12.3,17.9h-9.5l-16.1-23.8h.1ZM175.7,51h36v7.5h-27v12.3h22.1v7.5h-22.1v12.7h27.3v7.5h-36.3v-47.3h0ZM221.3,51h9v39.7h24.9v7.6h-33.9v-47.3Z"/>
</svg>