<?xml version="1.0" encoding="UTF-8"?>
<svg id="Layer_1" data-name="Layer 1" xmlns="http://www.w3.org/2000/svg" version="1.1" viewBox="0 0 340.7 123.6">
  <defs>
    <style>
      .cls-1 {
        fill: #cdcdcd;
      }

      .cls-1, .cls-2, .cls-3 {
        stroke-width: 0px;
      }

      .cls-1, .cls-3 {
        fill-rule: evenodd;
      }

      .cls-2, .cls-3 {
        fill: #231f20;
      }
    </style>
  </defs>
  <g>
    <path class="cls-3" d="M55.1,77.5l1.5,5.6h4.8l-6.1-21.8h-5.8l-6,21.8h4.6l1.4-5.6h5.6ZM50.1,73.8l1.2-4.6c.3-1.3.6-2.9.9-4.2h0c.3,1.3.6,2.9,1,4.2l1.2,4.6h-4.3Z"/>
    <rect class="cls-2" x="63.4" y="60.1" width="4.4" height="23"/>
    <rect class="cls-2" x="71.1" y="60.1" width="4.4" height="23"/>
    <path class="cls-3" d="M83.2,83.1v-15.8h-4.4v15.8h4.4ZM81,60.4c-1.4,0-2.4,1.1-2.3,2.5,0,1.4.9,2.5,2.3,2.5s2.4-1.1,2.4-2.5c0-1.4-.9-2.5-2.4-2.5Z"/>
    <path class="cls-3" d="M98.4,73.7c0-3.7-1.5-6.8-6.3-6.8s-4.5.8-5.5,1.4l.8,3.2c.9-.6,2.5-1.2,3.9-1.2,2.2,0,2.6,1.2,2.6,2v.2c-5,0-8.4,1.9-8.4,6s1.7,4.8,4.6,4.8,3.1-.7,4.1-1.9h0l.3,1.6h4c-.1-.9-.2-2.3-.2-3.8v-5.5ZM94.1,77.3c0,.3,0,.6,0,.8-.3,1-1.2,1.8-2.3,1.8s-1.7-.6-1.7-1.9c0-1.9,1.8-2.5,4.1-2.5v1.7Z"/>
    <path class="cls-3" d="M101.6,83.1h4.4v-9.1c0-.5,0-.9.2-1.2.3-.9,1-1.8,2.2-1.8s2.2,1.4,2.2,3.4v8.8h4.4v-9.4c0-4.7-2.2-6.8-5.1-6.8s-3.8,1.5-4.4,2.5h0l-.2-2.2h-3.8c0,1.4.1,3.1.1,5v10.8Z"/>
    <path class="cls-3" d="M128.5,79c-.7.3-1.5.5-2.5.5-2.2,0-3.9-1.5-3.9-4.4,0-2.6,1.5-4.4,3.8-4.4s1.9.2,2.5.5l.7-3.7c-.9-.4-2.2-.6-3.4-.6-5.3,0-8.1,3.8-8.1,8.4s2.9,8.1,7.5,8.1,3.2-.4,4-.7l-.5-3.7Z"/>
    <path class="cls-3" d="M143.4,76.7c0-.4.1-1.1.1-1.9,0-3.9-1.7-7.9-6.3-7.9s-7.2,4.4-7.2,8.4,2.8,8.1,7.6,8.1,3.7-.4,5.2-1l-.6-3.3c-1.2.4-2.4.6-3.9.6s-3.9-1-4-3h9.2ZM134.2,73.4c.1-1.3.9-3.2,2.7-3.2s2.5,2,2.5,3.2h-5.2Z"/>
    <path class="cls-3" d="M156.5,83.1v-12.2h2.8v-3.6h-2.9v-.8c0-1.6.6-2.8,2.1-2.8s1,0,1.4.2l.2-3.8c-.6-.2-1.4-.3-2.4-.3s-2.8.4-3.9,1.6c-1.3,1.3-1.8,3.4-1.8,5.3v.6h-1.9v3.6h1.9v12.2h4.5Z"/>
    <path class="cls-3" d="M167.6,66.9c-4.6,0-7.6,3.3-7.6,8.4s3.2,8.1,7.4,8.1,7.5-2.7,7.5-8.4-2.9-8.1-7.3-8.1ZM167.5,70.4c2,0,2.8,2.4,2.8,4.8s-1.1,4.8-2.8,4.8-2.9-2-2.9-4.8.8-4.8,2.9-4.8Z"/>
    <path class="cls-3" d="M177.4,83.1h4.4v-8c0-.4,0-.8,0-1.1.3-1.5,1.4-2.5,3-2.5s.9,0,1.2.2v-4.7c-.3,0-.5,0-.9,0-1.4,0-3.1,1-3.8,3.3h-.1v-2.9h-4c0,1.4.1,2.9.1,5.2v10.6Z"/>
    <path class="cls-3" d="M193.1,82.1c1.1.7,3.3,1.4,5.6,1.4,5.4,0,7.9-3.1,7.9-6.8s-1.6-5.1-5.1-6.5c-2.5-1.1-3.6-1.7-3.6-3.1s.9-2.1,2.9-2.1,3.3.6,4.1,1l1-3.9c-1.2-.6-2.8-1.1-5-1.1-4.6,0-7.4,2.8-7.4,6.6s2.1,5.2,5.4,6.4c2.4.9,3.3,1.7,3.3,3.1s-1.1,2.4-3.1,2.4-3.7-.7-4.9-1.4l-.9,4.1Z"/>
    <path class="cls-3" d="M222.5,67.3h-4.5v9.4c0,.4,0,.8-.1,1.1-.3.8-1,1.7-2.2,1.7s-2.2-1.4-2.2-3.7v-8.5h-4.5v9.3c0,4.9,2.1,6.9,5,6.9s3.9-1.6,4.5-2.6h0l.2,2.2h3.8c0-1.3-.1-3-.1-5.1v-10.7Z"/>
    <path class="cls-3" d="M225,82.3c1.1.6,2.7,1.1,4.6,1.1,4.1,0,6.2-2.2,6.2-5.1,0-2.3-1.2-3.8-3.9-4.9-1.7-.7-2.3-1.1-2.3-1.8s.6-1.3,1.7-1.3,2.4.5,3.1.9l.8-3.4c-.9-.5-2.4-.9-4-.9-3.5,0-5.8,2.2-5.8,5.2,0,1.8,1.1,3.6,4,4.7,1.7.6,2.1,1,2.1,1.8s-.6,1.3-1.9,1.3-3-.6-3.8-1.2l-.8,3.5Z"/>
    <path class="cls-3" d="M238.8,64.3v3h-1.9v3.6h1.9v6.5c0,2.2.4,3.7,1.2,4.7.7.8,1.9,1.4,3.3,1.4s2.3-.2,2.9-.5v-3.7c-.5,0-.7.1-1.3.1-1.3,0-1.7-.9-1.7-2.8v-5.7h3.2v-3.6h-3.2v-4.3l-4.3,1.3Z"/>
    <path class="cls-3" d="M260.4,73.7c0-3.7-1.5-6.8-6.3-6.8s-4.5.8-5.5,1.4l.8,3.2c.9-.6,2.5-1.2,3.9-1.2,2.2,0,2.6,1.2,2.6,2v.2c-5,0-8.4,1.9-8.4,6s1.7,4.8,4.6,4.8,3.1-.7,4.1-1.9h0l.3,1.6h4c-.1-.9-.2-2.3-.2-3.8v-5.5ZM256.1,77.3c0,.3,0,.6,0,.8-.3,1-1.2,1.8-2.3,1.8s-1.7-.6-1.7-1.9c0-1.9,1.8-2.5,4.1-2.5v1.7Z"/>
    <path class="cls-3" d="M268,83.1v-15.8h-4.4v15.8h4.4ZM265.8,60.4c-1.4,0-2.4,1.1-2.3,2.5,0,1.4.9,2.5,2.3,2.5s2.4-1.1,2.4-2.5c0-1.4-.9-2.5-2.4-2.5Z"/>
    <path class="cls-3" d="M271.3,83.1h4.4v-9.1c0-.5,0-.9.2-1.2.3-.9,1-1.8,2.2-1.8s2.2,1.4,2.2,3.4v8.8h4.4v-9.4c0-4.7-2.2-6.8-5.1-6.8s-3.8,1.5-4.4,2.5h0l-.2-2.2h-3.8c0,1.4.1,3.1.1,5v10.8Z"/>
    <path class="cls-3" d="M299.9,73.7c0-3.7-1.5-6.8-6.3-6.8s-4.5.8-5.5,1.4l.8,3.2c.9-.6,2.5-1.2,3.9-1.2,2.2,0,2.6,1.2,2.6,2v.2c-5,0-8.4,1.9-8.4,6s1.7,4.8,4.6,4.8,3.1-.7,4.1-1.9h0l.3,1.6h4c-.1-.9-.2-2.3-.2-3.8v-5.5ZM295.6,77.3c0,.3,0,.6,0,.8-.3,1-1.2,1.8-2.3,1.8s-1.7-.6-1.7-1.9c0-1.9,1.8-2.5,4.1-2.5v1.7Z"/>
    <path class="cls-3" d="M303.1,78.4c0,1.8,0,3.7-.1,4.7h3.8l.2-2.2h0c1,1.9,2.6,2.6,4.3,2.6,3.3,0,6.5-2.8,6.5-8.5,0-4.8-2.5-8-5.9-8s-3.5.9-4.3,2.2h0v-9.1h-4.4v18.3ZM307.5,74c0-.3,0-.6,0-.9.3-1.4,1.4-2.4,2.6-2.4,2.1,0,3.1,1.9,3.1,4.4s-1.2,4.5-3.1,4.5-2.3-1-2.6-2.3c0-.3,0-.6,0-.9v-2.3Z"/>
    <rect class="cls-2" x="320.2" y="60.1" width="4.4" height="23"/>
    <path class="cls-3" d="M340.5,76.7c0-.4.1-1.1.1-1.9,0-3.9-1.7-7.9-6.3-7.9s-7.2,4.4-7.2,8.4,2.8,8.1,7.6,8.1,3.7-.4,5.2-1l-.6-3.3c-1.2.4-2.4.6-3.9.6s-3.9-1-4-3h9.2ZM331.3,73.4c.1-1.3.9-3.2,2.7-3.2s2.5,2,2.5,3.2h-5.2Z"/>
  </g>
  <g>
    <polygon class="cls-3" points="164.8 103.2 157.6 103.2 157.6 98.7 165.3 98.7 165.3 94.6 153.2 94.6 153.2 116.4 165.7 116.4 165.7 112.4 157.6 112.4 157.6 107.2 164.8 107.2 164.8 103.2"/>
    <path class="cls-3" d="M168.3,116.4h4.4v-9.1c0-.5,0-.9.2-1.2.3-.9,1-1.8,2.2-1.8s2.2,1.4,2.2,3.4v8.8h4.4v-9.4c0-4.7-2.2-6.8-5.1-6.8s-3.8,1.5-4.4,2.5h0l-.2-2.2h-3.8c0,1.4.1,3.1.1,5v10.8Z"/>
    <path class="cls-3" d="M197.6,110.1c0-.4.1-1.1.1-1.9,0-3.9-1.7-7.9-6.3-7.9s-7.2,4.4-7.2,8.4,2.8,8.1,7.6,8.1,3.7-.4,5.1-1l-.6-3.3c-1.2.4-2.4.6-3.9.6s-3.9-1-4-3h9.2ZM188.4,106.7c.1-1.3.9-3.2,2.7-3.2s2.5,2,2.5,3.2h-5.2Z"/>
    <path class="cls-3" d="M200.1,116.4h4.4v-8c0-.4,0-.8,0-1.1.3-1.5,1.4-2.5,3-2.5s.9,0,1.2.2v-4.7c-.3,0-.5,0-.9,0-1.4,0-3.1,1-3.8,3.3h-.1v-2.9h-4c0,1.4.1,2.9.1,5.2v10.6Z"/>
    <path class="cls-3" d="M224.1,105.3c0-2.4,0-3.7.1-4.7h-3.8v1.9h-.2c-.7-1.3-2-2.2-3.9-2.2-3.5,0-6.5,3.2-6.5,8.3s2.5,7.7,6,7.7,3-.7,3.8-2.1h0v1c0,2.9-1.6,4.2-3.7,4.2s-3.2-.6-4.1-1.2l-.9,3.7c1.3.8,3.3,1.2,5.1,1.2s4.2-.5,5.8-1.9c1.6-1.6,2.2-4.1,2.2-7.1v-8.8ZM219.7,109.4c0,.4,0,.9-.1,1.3-.3,1.2-1.2,2-2.3,2-1.9,0-2.9-1.8-2.9-4.2s1.3-4.5,2.9-4.5,2.1.9,2.4,2.2c0,.3,0,.6,0,.9v2.3Z"/>
    <path class="cls-3" d="M225.8,100.6l5.2,14.5c.2.4.2.6.2.8s0,.5-.2.7c-.4.8-1.2,1.6-1.8,2-.7.5-1.4.7-1.9.8l.9,4.2c1.1-.2,2.7-.7,4.3-2.2,1.6-1.6,3-4.1,5-10.4l3.3-10.4h-4.7l-1.7,7.8c-.2.9-.4,2.1-.6,2.9h0c-.2-.8-.5-2-.7-2.9l-2.1-7.8h-4.9Z"/>
    <path class="cls-3" d="M242.1,120c1.4-2.5,2.7-5.9,3.7-9.2l-4.5.3c-.4,2.9-1.2,6.3-2.1,9.2l2.9-.3Z"/>
    <polygon class="cls-3" points="253.9 116.4 266.2 116.4 266.2 112.3 258.4 112.3 258.4 94.6 253.9 94.6 253.9 116.4"/>
    <polygon class="cls-3" points="268.5 116.4 280.7 116.4 280.7 112.3 272.9 112.3 272.9 94.6 268.5 94.6 268.5 116.4"/>
    <path class="cls-3" d="M295.7,112c-.9.4-2.4.7-3.7.7-4,0-6.3-2.7-6.3-7.1s2.7-7.2,6.3-7.2,2.8.4,3.7.8l.9-3.9c-.8-.5-2.5-1-4.8-1-5.9,0-10.7,4.1-10.7,11.6s3.5,10.9,10.3,10.9,4.2-.5,5-1l-.7-3.8Z"/>
  </g>
  <path class="cls-1" d="M200.8,31.1S232.4-3.2,285.7.2c39.5,2.5,22.9,37.4-12.8,46.1-33.8,8.2-73.9,7.5-130.8-.2-75.4-10.3-117.6.5-120.3,26.3-3.4,32.9,65.8,34.6,103.2,22.8-13.2,7.7-63,24.4-103.7,5.3C-24.9,78.7,9.3,30.5,73.6,28.1c48-1.8,94.3,11.4,156,13,62.6,1.6,87.5-32.2,53.2-35.2-44.3-3.8-82,25.1-82,25.1Z"/>
</svg>