<?xml version="1.0" encoding="UTF-8"?>
<!-- Generator: Adobe Illustrator 17.1.0, SVG Export Plug-In . SVG Version: 6.00 Build 0)  -->
<!DOCTYPE svg PUBLIC "-//W3C//DTD SVG 1.1//EN" "http://www.w3.org/Graphics/SVG/1.1/DTD/svg11.dtd">
<svg version="1.1" id="plus" xmlns="http://www.w3.org/2000/svg" xmlns:xlink="http://www.w3.org/1999/xlink" x="0px" y="0px" viewBox="0 0 23 23" enable-background="new 0 0 23 23" xml:space="preserve">
<g>
	<path fill="#0079C2" d="M11.5,0C5.1,0,0,5.1,0,11.5C0,17.9,5.1,23,11.5,23C17.9,23,23,17.9,23,11.5C23,5.1,17.9,0,11.5,0z M11.5,22   C5.7,22,1,17.3,1,11.5C1,5.7,5.7,1,11.5,1C17.3,1,22,5.7,22,11.5C22,17.3,17.3,22,11.5,22z"/>
	<polygon fill="#0079C2" points="11.9,5.5 10.9,5.5 10.9,10.5 5.9,10.5 5.9,11.5 10.9,11.5 10.9,17.5 11.9,17.5 11.9,11.5    17.9,11.5 17.9,10.5 11.9,10.5  "/>
</g>
</svg>