<svg version="1.1" id="Layer_1" xmlns="http://www.w3.org/2000/svg" x="0" y="0" viewBox="0 0 276 130" xml:space="preserve"><style>.st2{fill:#fff}</style><path id="background" d="M0 0h276v130H0V0z" fill="#0079c2"/><g id="Layer_1_1_"><path d="M60 90.3c-1.2.8-2.8 1.6-4.2 2.2h13.9V78.6c-.5 1.2-1.4 3.1-2.2 4.2L64.7 80c-.9 1.5-2 2.9-3.3 4.2-1.3 1.3-2.7 2.4-4.2 3.3l2.8 2.8zm.2-14.8c-.7 1.6-1.8 3.1-3.1 4.4s-2.8 2.4-4.4 3.1l3.8 3.8c1.5-.9 3-2 4.3-3.3s2.4-2.7 3.3-4.2l-3.9-3.8zm8.7-1.1c.8-3.4.8-7.1 0-10.6H67c.9 3.5.9 7.2 0 10.6h1.9zm-2.9 0c.9-3.2.9-7.1 0-10.6h-5.3c1.3 3.4 1.3 7.2 0 10.6H66zm1.5-19.1c.7 1.1 1.6 2.8 2.2 4.2V45.6H55.8c1.4.6 2.7 1.3 4.2 2.2l-2.8 2.8c1.5.9 2.9 1.9 4.2 3.3 1.4 1.4 2.4 2.7 3.3 4.2l2.8-2.8zm-14.8-.2c1.6.7 3.1 1.8 4.4 3.1 1.3 1.3 2.2 2.7 3.1 4.4l3.8-3.8c-.9-1.5-2-3-3.2-4.2-1.3-1.3-2.7-2.4-4.2-3.3l-3.9 3.8zm-1.1-8.7c-3.5-.8-7.1-.8-10.6 0v1.9c3.5-.9 7.1-.9 10.6 0v-1.9zm0 2.9c-3.5-.9-7.1-.9-10.6 0v5.4c3.4-1.3 7.2-1.3 10.6 0v-5.4zm-23.8 8.8c.9-1.5 2-2.9 3.3-4.2s2.7-2.4 4.2-3.3l-2.8-2.8c1.3-.9 2.7-1.6 4.2-2.2H22.8v13.9c.6-1.5 1.3-2.9 2.2-4.2l2.8 2.8zm8.3-6.7c-1.5.9-3 2-4.3 3.3s-2.4 2.7-3.2 4.3l3.8 3.8c.7-1.6 1.8-3.1 3.1-4.4 1.3-1.3 2.8-2.3 4.4-3.1l-3.8-3.9zm-9.6 12.3c-.9 3.5-.9 7.2 0 10.6h5.3c-1.3-3.4-1.3-7.2 0-10.6h-5.3zm-2.9 0c-.8 3.5-.8 7.1 0 10.6h1.9c-.9-3.4-.9-7.1 0-10.6h-1.9zm1.5 19.1c-.9-1.4-1.6-2.8-2.2-4.2v13.9h13.9c-1.5-.6-2.9-1.3-4.2-2.2l2.8-2.8c-1.5-.9-2.9-2-4.2-3.3s-2.4-2.7-3.3-4.2l-2.8 2.8zm3.5-3.6c.9 1.5 2 3 3.3 4.3 1.3 1.3 2.7 2.4 4.2 3.2l3.8-3.8c-1.6-.7-3.1-1.8-4.4-3.1-1.3-1.3-2.3-2.8-3.1-4.4l-3.8 3.8zM41 83.4c3.4 1.3 7.2 1.2 10.6 0v5.3c-3.5 1-7.1.9-10.6 0v-5.3zm0 6.4c3.5.9 7.1.9 10.6 0v1.9c-3.5.8-7.1.8-10.6 0v-1.9z" fill-rule="evenodd" clip-rule="evenodd" fill="#fff"/><path class="st2" d="M80.6 45.5h7.1l23.5 32.6V45.5h7.6v47.1h-6.5L88.2 59.1v33.5h-7.6V45.5zm60.1 23.3h6.6c5.7 0 9.3-3.1 9.3-7.9v-.1c0-5.1-3.5-7.8-9.4-7.8h-11.6v39.6h-8V45.5h20.2c5.7 0 10.2 1.7 13.1 4.7 2.4 2.6 3.8 6.1 3.8 10.2v.1c0 7.7-4.5 12.4-10.8 14.3l12.3 17.8h-9.4l-16.1-23.8zM173 45.5h35.9v7.4H182v12.3h22v7.4h-22v12.7h27.3v7.4H173V45.5zm45.6 0h9v39.6h24.9v7.5h-33.8l-.1-47.1z"/><path d="M217.9 113.5h-1.8v-12.7h5.5c1.5 0 2.8.5 3.7 1.3.7.6 1 1.6 1 2.6 0 1.9-1.2 3.3-3.2 3.7l3.8 5.1h-2.2l-4.8-6.4h1.6c1.8 0 3-.9 3-2.3s-1.1-2.2-3-2.2h-3.6v10.9zm-30 0h-9.4v-12.7h9.3v1.7h-7.5v3.8h6.3v1.7h-6.3v3.9h7.6v1.6zm13.3 0h-1.4l-7.7-9.7v9.7h-1.8v-12.7h1.6l.1.1 7.4 9.4v-9.4h1.8v12.6zm12.5 0h-9.4v-12.7h9.3v1.7h-7.5v3.8h6.3v1.7h-6.3v3.9h7.6v1.6zm21.1.3c-3.8 0-6.5-2.7-6.5-6.5 0-3.7 2.8-6.6 6.4-6.6 1.9 0 3.3.5 4.7 1.7l.2.1-1.2 1.4-.2-.1c-.8-.7-1.8-1.3-3.6-1.3-2.5 0-4.5 2.1-4.5 4.8 0 3 1.9 4.9 4.7 4.9 1.2 0 2.4-.4 3.4-1.1v-2.7h-3.8v-1.6h5.5v5.2l-.1.1c-.7.5-2.5 1.7-5 1.7zm13-.3H246v-5l-5.3-7.7h2.2l4.1 6 4.1-6h2.1l-5.3 7.7v5h-.1z" fill="#c2d500"/><path class="st2" d="M84 102.8h-3.4l.2-1.3h8.3l-.2 1.3h-3.5l-2 10.5H82l2-10.5zm3.3 10.5l1-5.4c.2-1.1.3-2.2.4-3H90c-.1.6-.1 1.2-.2 1.8h.1c.6-1.2 1.4-2 2.6-2h.4l-.3 1.4h-.4c-1.2 0-2.4 1.5-2.7 3.5l-.7 3.7h-1.5zm10.9 0c0-.5.1-1.3.2-2.2-.9 1.8-2.1 2.4-3.3 2.4-1.5 0-2.4-1.2-2.4-2.8 0-2.9 2.2-6 5.8-6 .8 0 1.7.1 2.3.3l-.9 4.4c-.3 1.5-.4 3-.3 3.9h-1.4zm.9-7.4c-.2-.1-.5-.1-1-.1-2.2 0-4 2.3-4 4.6 0 .9.3 1.9 1.4 1.9 1.2 0 2.6-1.6 3.1-3.8l.5-2.6zm2.6 7.4l1.1-6c.2-.9.3-1.8.4-2.5h1.3l-.2 1.7c.8-1.2 1.9-1.9 3.1-1.9 1 0 2.1.6 2.1 2.3 0 .4-.1.9-.2 1.4l-.9 4.9H107l.9-4.9c.1-.3.1-.7.1-1.1 0-.8-.3-1.5-1.3-1.5s-2.5 1.2-2.9 3.3l-.8 4.1h-1.3v.2zm9.4-1.5c.4.2 1.1.5 1.8.5 1 0 1.6-.6 1.6-1.4 0-.7-.3-1.1-1.2-1.6-1-.5-1.5-1.3-1.5-2.1 0-1.5 1.3-2.6 3.1-2.6.8 0 1.4.2 1.7.4l-.4 1.1c-.3-.2-.8-.4-1.4-.4-.9 0-1.5.5-1.5 1.3 0 .6.4 1 1.2 1.4.9.5 1.6 1.3 1.6 2.2 0 1.8-1.4 2.8-3.2 2.8-.9 0-1.7-.3-2.1-.6l.3-1zm6.6 1.5l1.4-7.3H118l.2-1.1h1.1l.1-.5c.2-1.2.6-2.3 1.4-2.9.5-.5 1.3-.7 2-.7.6 0 1 .1 1.2.2l-.3 1.2c-.2-.1-.5-.2-.9-.2-1.2 0-1.7 1.1-2 2.5l-.1.4h1.9l-.2 1.1h-1.9l-1.4 7.3h-1.4zm8.2.2c-2.1 0-3.3-1.6-3.3-3.5 0-2.8 1.9-5.4 4.7-5.4 2.3 0 3.3 1.7 3.3 3.5 0 2.7-1.9 5.4-4.7 5.4zm.2-1.2c1.7 0 3-2.2 3-4.2 0-1-.5-2.4-2-2.4-1.8 0-3 2.2-3 4.2 0 1.4.8 2.4 2 2.4zm5.5 1l1-5.4c.2-1.1.3-2.2.4-3h1.3c-.1.6-.1 1.2-.2 1.8h.1c.6-1.2 1.4-2 2.6-2h.4l-.3 1.4h-.4c-1.2 0-2.4 1.5-2.7 3.5l-.7 3.7h-1.5zm5.5 0l1.1-6c.2-.9.3-1.8.4-2.5h1.3l-.2 1.6h.1c.8-1.2 1.9-1.8 3-1.8 1.3 0 1.9.8 2 1.9.7-1.2 1.8-1.9 3.1-1.9 1 0 2.1.6 2.1 2.2 0 .4-.1 1-.1 1.4l-.9 5h-1.4l.9-4.9c.1-.3.1-.7.1-1.1 0-.9-.3-1.5-1.3-1.5s-2.3 1.2-2.7 3.1l-.8 4.3h-1.4l.9-5c.1-.4.1-.7.1-1 0-.7-.2-1.4-1.3-1.4s-2.4 1.4-2.7 3.2l-.8 4.2h-1.5v.2zm14.1 0l1.6-8.4h1.4l-1.6 8.4h-1.4zm2.7-9.9c-.5 0-.8-.4-.8-.9 0-.6.4-1 1-1 .5 0 .9.4.9.9-.1.6-.5 1-1.1 1zm1.3 9.9l1.1-6c.2-.9.3-1.8.4-2.5h1.3l-.2 1.7c.8-1.2 1.9-1.9 3.1-1.9 1 0 2.1.6 2.1 2.3 0 .4-.1.9-.2 1.4l-.9 4.9h-1.4l.9-4.9c.1-.3.1-.7.1-1.1 0-.8-.3-1.5-1.3-1.5s-2.5 1.2-2.9 3.3l-.8 4.1h-1.3v.2zm9.4 1.9c.5.3 1.4.6 2.2.6 1.4 0 2.5-.7 3-3l.3-1.3c-.8 1.2-1.8 1.8-2.9 1.8-1.7 0-2.6-1.4-2.6-2.9 0-2.9 2.1-5.7 5.4-5.7 1 0 2.1.3 2.7.6l-1.3 7c-.3 1.8-.8 3-1.7 3.8-.9.7-2 .9-2.9.9-1 0-2-.2-2.5-.6l.3-1.2zm6.5-9.1c-.3-.1-.8-.3-1.4-.3-2.1 0-3.6 2.2-3.6 4.3 0 .9.3 2 1.6 2 1.2 0 2.5-1.6 2.8-3.2l.6-2.8z"/></g></svg>